# xmcd
#
# Track frame offsets:
#	150
#	12190
#	32624
#	54367
#	76873
#	97466
#	116397
#	126881
#	145144
#	162348
#	181365
#
# Disc length: 2652 seconds
#
# Revision: 1
# Processed by: cddbd v1.5.2PL0 Copyright (c) Steve Scherf et al.
# Submitted via: audiograbber 1.83.01
#
DISCID=8a0a5a0b
DTITLE=Sade - Lovers Rock
DYEAR=1900
DGENRE=
TTITLE0=By Your Side
TTITLE1=Flow
TTITLE2=King Of Sorrow
TTITLE3=Somebody Already Broke My Heart
TTITLE4=All About Our Love
TTITLE5=Slave Song
TTITLE6=The Sweetest Gift
TTITLE7=Every Word
TTITLE8=Immigrant
TTITLE9=Lovers Rock
TTITLE10=It's Only Love That Gets You Through
EXTD=
EXTT0=
EXTT1=
EXTT2=
EXTT3=
EXTT4=
EXTT5=
EXTT6=
EXTT7=
EXTT8=
EXTT9=
EXTT10=
PLAYORDER=
